<svg width="21" height="22" viewBox="0 0 21 22" fill="none" xmlns="http://www.w3.org/2000/svg">
<path d="M20.6667 10.9067C20.6667 10.2045 20.6051 9.5378 20.4995 8.88892H10.5577V12.8978H16.2501C15.9949 14.2134 15.2471 15.3245 14.1385 16.08V18.7467H17.5346C19.5229 16.8889 20.6667 14.1511 20.6667 10.9067Z" fill="#4285F4"/>
<path d="M10.5577 21.3334C13.4082 21.3334 15.7925 20.3734 17.5345 18.7467L14.1385 16.08C13.1883 16.72 11.983 17.1112 10.5577 17.1112C7.80387 17.1112 5.47238 15.2356 4.63656 12.7023H1.13493V15.4489C2.86815 18.9334 6.43137 21.3334 10.5577 21.3334Z" fill="#34A853"/>
<path d="M4.63658 12.7022C4.41663 12.0622 4.30226 11.3777 4.30226 10.6666C4.30226 9.95551 4.42543 9.27107 4.63658 8.63107V5.8844H1.13495C0.413509 7.3244 0 8.94218 0 10.6666C0 12.3911 0.413509 14.0088 1.13495 15.4488L4.63658 12.7022Z" fill="#FBBC05"/>
<path d="M10.5577 4.22222C12.1149 4.22222 13.505 4.76444 14.6048 5.82222L17.6137 2.78222C15.7925 1.05778 13.4082 0 10.5577 0C6.43137 0 2.86815 2.4 1.13493 5.88444L4.63656 8.63111C5.47238 6.09778 7.80387 4.22222 10.5577 4.22222Z" fill="#EA4335"/>
</svg>
