<svg width="22" height="15" viewBox="0 0 22 15" fill="none" xmlns="http://www.w3.org/2000/svg">
<path fill-rule="evenodd" clip-rule="evenodd" d="M18.9782 0.443223C19.8956 0.684982 20.6213 1.39683 20.8678 2.2967C21.3196 3.93529 21.3333 7.33333 21.3333 7.33333C21.3333 7.33333 21.3333 10.7448 20.8815 12.37C20.635 13.2698 19.9093 13.9817 18.9919 14.2234C17.335 14.6667 10.6667 14.6667 10.6667 14.6667C10.6667 14.6667 3.99829 14.6667 2.34146 14.2234C1.42405 13.9817 0.698331 13.2698 0.451861 12.37C0 10.7314 0 7.33333 0 7.33333C0 7.33333 0 3.93529 0.438169 2.31013C0.684638 1.41026 1.41036 0.698413 2.32777 0.456654C3.9846 0.013431 10.653 0 10.653 0C10.653 0 17.3214 0 18.9782 0.443223ZM14.0624 7.33333L8.53056 10.4762V4.19048L14.0624 7.33333Z" fill="#FF0000"/>
</svg>
