<svg width="16" height="20" viewBox="0 0 16 20" fill="none" xmlns="http://www.w3.org/2000/svg">
<path fill-rule="evenodd" clip-rule="evenodd" d="M11.8685 0.382721C11.8685 1.35793 11.4378 2.33314 10.8299 3.03679C10.1838 3.81454 9.06923 4.39472 8.18253 4.39484C8.08123 4.39484 7.9798 4.38241 7.91652 4.3701C7.90389 4.32074 7.8785 4.17252 7.8785 4.02443C7.8785 3.03679 8.39789 2.06158 8.95517 1.44435C9.66453 0.641973 10.8425 0.037053 11.8305 0C11.8559 0.111159 11.8685 0.24694 11.8685 0.382721ZM15.3531 6.52575C15.3777 6.51001 15.3946 6.49921 15.4025 6.49324C14.0852 4.65397 12.0838 4.60449 11.5264 4.60437C10.6747 4.60437 9.9124 4.89886 9.27152 5.14645C8.80678 5.32598 8.40589 5.48085 8.08111 5.48085C7.7228 5.48085 7.31255 5.31926 6.8547 5.13893C6.27669 4.91127 5.62283 4.65373 4.90187 4.65373C2.47001 4.65373 0 6.61659 0 10.32C0 12.6284 0.911964 15.0602 2.03929 16.6281C3.01453 17.9613 3.86322 19.0476 5.07921 19.0476C5.65587 19.0476 6.07871 18.8727 6.52334 18.6888C7.01629 18.4849 7.53603 18.2699 8.32186 18.2699C9.11535 18.2699 9.58972 18.4717 10.0473 18.6664C10.4735 18.8477 10.8851 19.0229 11.5265 19.0229C12.8564 19.0229 13.7305 17.8502 14.5664 16.6774C15.5038 15.3442 15.8965 14.0357 15.9091 13.974C15.8331 13.9494 13.2871 12.9494 13.2871 10.1225C13.2871 7.8472 15.0214 6.73789 15.3531 6.52575Z" fill="black"/>
</svg>
